# xmcd
#
# Track frame offsets:
#	150
#	18607
#	42525
#	55080
#	68443
#	97565
#	117858
#	141297
#	162984
#	191227
#	210650
#	226122
#	256913
#	271947
#
# Disc length: 3699 seconds
#
# Revision: 1
# Processed by: cddbd v1.5.1PL0 Copyright (c) Steve Scherf et al.
# Submitted via: audiograbber 1.81.03
#
DISCID=bb0e710e
DTITLE=Micel McKillips Bell - Caught Between A Rock And A Hard Place
DYEAR=2001
DGENRE=Blues
TTITLE0=Mean To Me
TTITLE1=Waiting On Love
TTITLE2=Mama Hen
TTITLE3=Illegitmi Non Carborundum
TTITLE4=Miss Me When I'm Gone
TTITLE5=Mean To My Rooster
TTITLE6=Concrete Canyons
TTITLE7=Bad Bad Boy
TTITLE8=Lord Send Me An Angel
TTITLE9=Mother's Day
TTITLE10=Make It Up To You
TTITLE11=Destination Anywhere
TTITLE12=Hot And Cold Running Love
TTITLE13=Pillow Talk
EXTD=
EXTT0=
EXTT1=
EXTT2=
EXTT3=
EXTT4=
EXTT5=
EXTT6=
EXTT7=
EXTT8=
EXTT9=
EXTT10=
EXTT11=
EXTT12=
EXTT13=
PLAYORDER=
